PathFileType   4   (X/Y/Z)
DataRate	CameraRate	NumFrames	NumMarkers	Units	OrigDataRate	OrigDataStartFrame	OrigNumFrames
120.0	120.0	10	37	mm	120.0	86	136
Frame#	Time	midhip	hip_r	hip_l	knee_r	knee_l	ankle_r	ankle_l	midasis	asis_r	asis_l	psis_r	psis_l	epicondLat_r	epicondLat_l	epicondMed_r	epicondMed_l	malleolusLat_r	malleolusLat_l	malleolusMedv_r	malleolusMedv_l	neck	subclavicle_r	subclavicle_l	sternalnotch	xyphoidprocess	thighwand_r	thighwand_l	upperleg1_r	upperleg1_l	upperleg2_r	upperleg2_l	shankwand_r	shankwand_l	lowerleg1_r	lowerleg1_l	toe_r	toe_l
 	 	X1	Y1	Z1	X2	Y2	Z2	X3	Y3	Z3	X4	Y4	Z4	X5	Y5	Z5	X6	Y6	Z6	X7	Y7	Z7	X8	Y8	Z8	X9	Y9	Z9	X10	Y10	Z10	X11	Y11	Z11	X12	Y12	Z12	X13	Y13	Z13	X14	Y14	Z14	X15	Y15	Z15	X16	Y16	Z16	X17	Y17	Z17	X18	Y18	Z18	X19	Y19	Z19	X20	Y20	Z20	X21	Y21	Z21	X22	Y22	Z22	X23	Y23	Z23	X24	Y24	Z24	X25	Y25	Z25	X26	Y26	Z26	X27	Y27	Z27	X28	Y28	Z28	X29	Y29	Z29	X30	Y30	Z30	X31	Y31	Z31	X32	Y32	Z32	X33	Y33	Z33	X34	Y34	Z34	X35	Y35	Z35	X36	Y36	Z36	X37	Y37	Z37

	86	0.84167	701.634	686.002	-265.096	694.315	691.855	-200.298	695.820	694.299	-326.094	740.596	372.689	-186.979	727.425	382.709	-296.699	495.694	166.788	-185.093	764.718	60.565	-290.509	764.870	752.010	-261.216	763.738	750.172	-166.556	766.003	753.849	-355.876	622.577	799.640	-240.632	620.273	796.856	-295.925	738.367	374.470	-136.560	724.581	377.734	-346.370	757.577	357.131	-230.764	741.642	380.256	-241.286	491.206	172.425	-152.377	755.476	58.857	-323.704	505.065	172.266	-210.822	760.393	65.810	-262.443	677.799	1144.864	-278.942	761.677	1099.187	-215.940	753.152	1095.468	-344.873	751.552	1085.806	-282.267	768.849	943.009	-278.541	723.554	461.542	-62.230	847.613	492.234	-347.121	758.955	522.645	-128.579	773.644	547.689	-294.079	781.073	441.091	-135.579	776.684	463.106	-278.328	557.920	250.465	-79.575	832.403	167.965	-340.681	611.225	273.946	-136.947	767.394	217.646	-315.671	537.778	79.749	-173.492	856.284	38.506	-305.265
	87	0.85000	708.573	686.759	-265.431	701.310	692.941	-200.817	702.546	694.801	-326.626	754.189	374.642	-187.253	730.481	382.899	-296.896	513.479	164.523	-185.868	764.985	60.528	-290.398	771.730	752.818	-262.165	770.801	751.420	-167.579	772.659	754.216	-356.751	629.474	800.468	-241.151	627.121	797.526	-296.459	752.254	376.470	-136.823	727.200	377.874	-346.534	771.548	359.312	-230.653	737.884	381.179	-242.580	508.522	170.416	-153.265	755.556	58.851	-323.542	523.138	169.752	-211.710	760.532	65.786	-262.319	684.894	1145.627	-279.786	768.539	1100.118	-216.788	760.323	1096.258	-345.644	758.630	1086.608	-282.996	775.953	943.878	-279.156	736.201	463.032	-62.067	851.532	490.797	-348.382	770.093	524.895	-128.557	778.517	547.187	-295.151	793.806	443.767	-135.619	777.309	461.849	-279.157	572.976	250.418	-80.703	833.199	167.191	-340.996	626.414	274.280	-137.771	768.612	217.530	-315.921	559.014	79.694	-172.173	856.432	38.335	-305.329
	88	0.85833	715.520	687.402	-265.788	708.274	693.926	-201.334	709.221	695.207	-327.153	767.592	376.613	-187.624	733.791	383.078	-297.061	531.720	161.699	-186.605	765.305	60.492	-290.250	778.533	753.543	-263.118	777.822	752.581	-168.604	779.244	754.505	-357.632	636.371	801.158	-241.668	633.915	798.073	-296.964	765.977	378.490	-137.185	729.964	377.995	-346.655	785.503	361.538	-230.745	741.477	381.425	-243.243	526.257	167.849	-154.131	755.677	58.853	-323.339	541.708	166.719	-212.487	760.823	65.723	-262.104	692.002	1146.282	-280.608	775.503	1100.871	-217.599	767.472	1096.861	-346.344	765.717	1087.295	-283.694	783.007	944.559	-279.712	748.788	464.528	-61.962	855.481	489.350	-349.907	781.110	527.068	-128.570	783.845	546.678	-296.577	806.491	446.362	-135.791	781.653	461.548	-280.373	588.194	250.026	-81.880	834.072	166.360	-341.287	641.800	274.360	-138.704	769.919	217.311	-316.132	580.672	79.298	-171.050	856.614	38.167	-305.383
	89	0.86667	722.441	687.926	-266.159	715.194	694.810	-201.839	715.841	695.516	-327.664	780.790	378.587	-188.096	737.352	383.240	-297.194	550.393	158.395	-187.310	765.660	60.453	-290.064	785.272	754.183	-264.062	784.786	753.653	-169.611	785.758	754.713	-358.513	643.272	801.709	-242.181	640.657	798.501	-297.440	779.520	380.516	-137.649	732.902	378.100	-346.730	799.191	363.757	-230.878	740.637	382.864	-243.412	544.414	164.766	-154.970	755.838	58.862	-323.098	560.604	163.223	-213.218	761.261	65.624	-261.844	699.095	1146.838	-281.400	782.615	1101.456	-218.243	774.698	1097.331	-346.953	772.807	1087.862	-284.361	790.192	945.090	-280.191	761.292	466.025	-61.931	859.490	487.928	-351.606	791.778	529.140	-128.603	789.363	546.033	-297.987	818.910	448.976	-136.026	783.876	461.015	-281.109	603.632	249.219	-83.071	835.045	165.471	-341.520	657.255	274.132	-139.857	771.513	217.059	-316.204	602.699	78.588	-170.121	856.827	38.005	-305.423
	90	0.87500	729.348	688.332	-266.533	722.061	695.596	-202.324	722.409	695.733	-328.152	793.773	380.550	-188.667	741.151	383.383	-297.296	569.471	154.684	-187.999	766.030	60.410	-289.843	791.945	754.740	-264.981	791.684	754.637	-170.581	792.207	754.842	-359.382	650.185	802.121	-242.687	647.355	798.816	-297.888	792.872	382.532	-138.214	736.041	378.189	-346.762	812.686	365.897	-230.977	743.020	383.297	-243.691	562.996	161.210	-155.785	756.034	58.879	-322.828	579.857	159.376	-213.960	761.571	65.469	-261.568	706.218	1147.286	-282.165	789.740	1101.906	-218.843	781.888	1097.718	-347.499	779.889	1088.307	-284.984	797.324	945.508	-280.679	773.698	467.517	-61.991	863.590	486.561	-353.379	802.112	531.264	-128.810	794.866	545.307	-299.132	831.126	451.584	-136.368	787.641	460.291	-281.940	619.345	247.934	-84.243	836.131	164.526	-341.670	672.780	273.689	-141.140	773.423	216.748	-316.112	625.038	77.595	-169.373	857.064	37.853	-305.447
	91	0.88333	736.247	688.626	-266.904	728.881	696.288	-202.781	728.940	695.863	-328.609	806.540	382.484	-189.336	745.162	383.502	-297.368	588.931	150.636	-188.686	766.396	60.358	-289.596	798.563	755.220	-265.862	798.519	755.538	-171.496	798.607	754.901	-360.228	657.115	802.398	-243.182	654.018	799.022	-298.306	806.027	384.519	-138.879	739.397	378.262	-346.758	825.943	368.210	-231.537	747.336	383.215	-244.151	582.004	157.228	-156.579	756.259	58.899	-322.541	599.418	155.283	-214.730	761.843	65.272	-261.254	713.355	1147.700	-282.846	796.835	1102.237	-219.487	788.957	1098.035	-348.089	786.955	1088.640	-285.551	804.224	945.818	-281.269	785.994	468.999	-62.152	867.812	485.270	-355.124	812.552	533.389	-129.191	800.532	544.658	-300.288	843.306	454.123	-137.038	792.437	459.540	-282.942	635.382	246.135	-85.365	837.336	163.527	-341.725	688.500	272.883	-142.244	775.376	216.389	-315.910	647.634	76.353	-168.790	857.316	37.711	-305.455
	92	0.89167	743.178	688.821	-267.267	735.671	696.888	-203.204	735.460	695.917	-329.029	819.104	384.372	-190.098	749.357	383.593	-297.414	608.751	146.311	-189.377	766.746	60.295	-289.332	805.144	755.631	-266.690	805.301	756.359	-172.342	804.986	754.902	-361.038	664.065	802.549	-243.662	660.658	799.125	-298.693	818.988	386.457	-139.641	742.975	378.318	-346.723	838.514	370.839	-232.531	752.088	383.105	-244.681	601.435	152.872	-157.351	756.503	58.922	-322.248	619.444	150.910	-215.416	762.320	65.107	-260.843	720.461	1148.080	-283.425	803.838	1102.459	-220.018	796.004	1098.256	-348.702	793.631	1088.869	-285.997	810.955	946.019	-281.820	798.160	470.464	-62.420	872.184	484.063	-356.747	822.966	535.443	-129.521	806.367	544.034	-301.468	855.153	456.746	-137.920	797.546	458.871	-283.989	651.777	243.811	-86.413	838.650	162.474	-341.687	704.423	271.607	-143.054	777.416	215.998	-315.552	670.448	74.901	-168.357	857.573	37.580	-305.451
	93	0.90000	750.154	688.928	-267.621	742.465	697.397	-203.592	742.014	695.902	-329.412	831.482	386.198	-190.948	753.701	383.652	-297.434	628.916	141.759	-190.071	767.073	60.222	-289.065	811.723	755.983	-267.456	812.062	757.104	-173.109	811.385	754.862	-361.803	671.026	802.585	-244.126	667.288	799.132	-299.051	831.758	388.326	-140.494	746.775	378.350	-346.667	850.725	373.447	-233.442	756.778	383.018	-245.100	621.286	148.197	-158.093	756.758	58.945	-321.962	640.128	146.225	-216.009	762.764	64.997	-260.412	727.557	1148.347	-283.973	810.819	1102.555	-220.363	803.035	1098.392	-349.233	800.457	1089.019	-286.458	817.658	946.113	-282.288	810.174	471.898	-62.800	876.728	482.933	-358.172	832.987	537.519	-129.922	812.222	543.437	-302.343	866.644	459.474	-138.824	802.644	458.273	-284.815	668.546	240.991	-87.369	840.059	161.368	-341.575	720.460	269.972	-143.669	779.681	215.604	-315.104	693.459	73.287	-168.067	857.826	37.460	-305.439
	94	0.90833	757.200	688.968	-267.958	749.296	697.813	-203.948	748.641	695.830	-329.760	843.699	387.948	-191.880	758.163	383.672	-297.429	649.419	137.025	-190.757	767.375	60.139	-288.805	818.336	756.286	-268.152	818.827	757.773	-173.791	817.844	754.798	-362.514	677.983	802.522	-244.572	673.919	799.051	-299.378	844.339	390.108	-141.430	750.783	378.355	-346.595	863.065	375.857	-234.293	761.350	383.026	-245.447	641.549	143.261	-158.797	757.016	58.967	-321.692	661.014	141.414	-216.726	763.083	64.886	-260.048	734.766	1148.506	-284.461	817.878	1102.550	-220.634	809.972	1098.468	-349.703	807.263	1089.092	-286.897	824.281	946.121	-282.749	821.999	473.284	-63.295	881.457	481.865	-359.344	842.639	539.534	-130.508	817.985	542.964	-302.885	878.024	462.119	-139.804	807.668	457.864	-285.414	685.685	237.733	-88.224	841.544	160.211	-341.413	736.750	267.996	-144.368	781.819	215.345	-314.881	716.666	71.562	-167.920	858.068	37.350	-305.422
	95	0.91667	764.313	688.958	-268.278	756.192	698.135	-204.277	755.377	695.710	-330.079	855.771	389.617	-192.887	762.714	383.650	-297.403	670.257	132.150	-191.417	767.653	60.045	-288.560	825.010	756.544	-268.775	825.621	758.363	-174.386	824.399	754.725	-363.164	684.907	802.378	-244.998	680.559	798.892	-299.679	856.728	391.788	-142.443	754.980	378.326	-346.513	875.281	378.357	-235.475	760.863	381.815	-246.078	662.216	138.126	-159.451	757.271	58.988	-321.444	681.923	136.611	-217.539	763.125	64.795	-259.751	741.932	1148.626	-284.867	824.858	1102.500	-221.025	809.754	1097.993	-349.342	814.237	1089.096	-287.345	823.328	945.637	-282.299	833.592	474.599	-63.905	886.372	480.838	-360.241	852.792	541.261	-131.107	818.198	541.869	-302.556	889.341	464.723	-140.835	807.814	456.728	-285.108	703.173	234.120	-88.981	843.086	159.003	-341.225	753.275	265.740	-145.129	783.964	215.043	-314.805	740.075	69.784	-167.919	858.293	37.250	-305.406
